<svg width="54" height="47" viewBox="0 0 54 47" fill="none" xmlns="http://www.w3.org/2000/svg">
<rect x="4.25244" y="3.21924" width="45.8023" height="40.4091" rx="6" fill="url(#paint0_radial_63_592)"/>
<rect x="4.25244" y="3.21924" width="45.8023" height="40.4091" rx="6" fill="url(#paint1_radial_63_592)"/>
<rect x="4.25244" y="3.21924" width="45.8023" height="40.4091" rx="6" fill="url(#paint2_radial_63_592)"/>
<path d="M38.6044 15.4865C38.6044 16.6821 37.5059 17.6513 36.1507 17.6513C34.7956 17.6513 33.6971 16.6821 33.6971 15.4865C33.6971 14.2909 34.7956 13.3217 36.1507 13.3217C37.5059 13.3217 38.6044 14.2909 38.6044 15.4865Z" fill="white"/>
<path fill-rule="evenodd" clip-rule="evenodd" d="M27.1539 30.6399C31.671 30.6399 35.3329 27.4092 35.3329 23.424C35.3329 19.4388 31.671 16.2081 27.1539 16.2081C22.6367 16.2081 18.9749 19.4388 18.9749 23.424C18.9749 27.4092 22.6367 30.6399 27.1539 30.6399ZM27.1539 27.7536C29.8641 27.7536 32.0613 25.8151 32.0613 23.424C32.0613 21.0329 29.8641 19.0945 27.1539 19.0945C24.4436 19.0945 22.2465 21.0329 22.2465 23.424C22.2465 25.8151 24.4436 27.7536 27.1539 27.7536Z" fill="white"/>
<path fill-rule="evenodd" clip-rule="evenodd" d="M10.7959 22.8467C10.7959 17.9972 10.7959 15.5724 11.8656 13.7201C12.8066 12.0908 14.3081 10.7661 16.1549 9.93597C18.2544 8.99219 21.0028 8.99219 26.4995 8.99219H27.8082C33.305 8.99219 36.0534 8.99219 38.1529 9.93597C39.9996 10.7661 41.5011 12.0908 42.4421 13.7201C43.5118 15.5724 43.5118 17.9972 43.5118 22.8467V24.0013C43.5118 28.8508 43.5118 31.2756 42.4421 33.1279C41.5011 34.7572 39.9996 36.0819 38.1529 36.912C36.0534 37.8558 33.305 37.8558 27.8082 37.8558H26.4995C21.0028 37.8558 18.2544 37.8558 16.1549 36.912C14.3081 36.0819 12.8066 34.7572 11.8656 33.1279C10.7959 31.2756 10.7959 28.8508 10.7959 24.0013V22.8467ZM26.4995 11.8786H27.8082C30.6106 11.8786 32.5156 11.8808 33.9881 11.9869C35.4224 12.0903 36.1559 12.2777 36.6676 12.5077C37.8988 13.0612 38.8998 13.9443 39.5271 15.0305C39.7878 15.4819 40.0002 16.1291 40.1174 17.3945C40.2377 18.6936 40.2402 20.3743 40.2402 22.8467V24.0013C40.2402 26.4737 40.2377 28.1544 40.1174 29.4535C40.0002 30.7189 39.7878 31.3661 39.5271 31.8175C38.8998 32.9037 37.8988 33.7868 36.6676 34.3403C36.1559 34.5703 35.4224 34.7577 33.9881 34.8611C32.5156 34.9672 30.6106 34.9695 27.8082 34.9695H26.4995C23.6972 34.9695 21.7921 34.9672 20.3196 34.8611C18.8853 34.7577 18.1518 34.5703 17.6401 34.3403C16.409 33.7868 15.408 32.9037 14.7807 31.8175C14.5199 31.3661 14.3075 30.7189 14.1903 29.4535C14.07 28.1544 14.0675 26.4737 14.0675 24.0013V22.8467C14.0675 20.3743 14.07 18.6936 14.1903 17.3945C14.3075 16.1291 14.5199 15.4819 14.7807 15.0305C15.408 13.9443 16.409 13.0612 17.6401 12.5077C18.1518 12.2777 18.8853 12.0903 20.3196 11.9869C21.7921 11.8808 23.6972 11.8786 26.4995 11.8786Z" fill="white"/>
<defs>
<radialGradient id="paint0_radial_63_592" cx="0" cy="0" r="1" gradientUnits="userSpaceOnUse" gradientTransform="translate(20.6104 33.5261) rotate(-51.9522) scale(38.485 39.949)">
<stop stop-color="#B13589"/>
<stop offset="0.79309" stop-color="#C62F94"/>
<stop offset="1" stop-color="#8A3AC8"/>
</radialGradient>
<radialGradient id="paint1_radial_63_592" cx="0" cy="0" r="1" gradientUnits="userSpaceOnUse" gradientTransform="translate(18.9746 45.0715) rotate(-62.2887) scale(33.4182 36.063)">
<stop stop-color="#E0E8B7"/>
<stop offset="0.444662" stop-color="#FB8A2E"/>
<stop offset="0.71474" stop-color="#E2425C"/>
<stop offset="1" stop-color="#E2425C" stop-opacity="0"/>
</radialGradient>
<radialGradient id="paint2_radial_63_592" cx="0" cy="0" r="1" gradientUnits="userSpaceOnUse" gradientTransform="translate(1.79875 4.66242) rotate(-7.18344) scale(63.4764 12.0316)">
<stop offset="0.156701" stop-color="#406ADC"/>
<stop offset="0.467799" stop-color="#6A45BE"/>
<stop offset="1" stop-color="#6A45BE" stop-opacity="0"/>
</radialGradient>
</defs>
</svg>
