<svg width="56" height="49" viewBox="0 0 56 49" fill="none" xmlns="http://www.w3.org/2000/svg">
<rect x="4.2959" y="3.36377" width="48.0924" height="42.4295" rx="21.2148" fill="#1275B1"/>
<path d="M22.5345 15.0197C22.5345 16.4359 21.1432 17.5839 19.4269 17.5839C17.7107 17.5839 16.3193 16.4359 16.3193 15.0197C16.3193 13.6036 17.7107 12.4556 19.4269 12.4556C21.1432 12.4556 22.5345 13.6036 22.5345 15.0197Z" fill="white"/>
<path d="M16.7443 19.4687H22.0564V33.6703H16.7443V19.4687Z" fill="white"/>
<path d="M30.6089 19.4687H25.2968V33.6703H30.6089C30.6089 33.6703 30.6089 29.1995 30.6089 26.4041C30.6089 24.7262 31.2583 23.041 33.8493 23.041C36.7775 23.041 36.7599 25.2368 36.7463 26.9378C36.7284 29.1614 36.771 31.4304 36.771 33.6703H42.0831V26.175C42.0381 21.3891 40.6246 19.1838 35.9742 19.1838C33.2125 19.1838 31.5006 20.29 30.6089 21.2908V19.4687Z" fill="white"/>
</svg>
