<svg width="19" height="16" viewBox="0 0 19 16" fill="none" xmlns="http://www.w3.org/2000/svg">
<path d="M5.79883 15.6455C3.71919 15.6455 1.78061 15.0319 0.148926 13.9731C1.53428 14.064 3.97911 13.8462 5.4998 12.3747C3.21219 12.2682 2.18052 10.4883 2.04596 9.72766C2.24033 9.80372 3.16733 9.895 3.69064 9.68202C1.05915 9.01265 0.655451 6.66985 0.745161 5.95484C1.23857 6.30474 2.07586 6.42644 2.4048 6.39601C-0.0472787 4.6161 0.834871 1.93861 1.26847 1.36052C3.02817 3.83377 5.66541 5.22284 8.92803 5.3001C8.86651 5.02639 8.83402 4.74143 8.83402 4.44875C8.83402 2.34828 10.5075 0.645508 12.5719 0.645508C13.6506 0.645508 14.6225 1.11035 15.3047 1.85388C16.0255 1.68253 17.1103 1.28142 17.6406 0.934554C17.3733 1.90819 16.5411 2.72039 16.0377 3.02143C16.0419 3.03167 16.0336 3.01114 16.0377 3.02143C16.4799 2.95357 17.6763 2.72031 18.1489 2.395C17.9152 2.94198 17.0329 3.85142 16.3089 4.36057C16.4436 10.3877 11.8981 15.6455 5.79883 15.6455Z" fill="#47ACDF"/>
</svg>
