<svg width="2580" height="1668" viewBox="0 0 2580 1668" fill="none" xmlns="http://www.w3.org/2000/svg">
<rect width="2580" height="1668" fill="black"/>
<path d="M843.828 834.207C837.248 834.207 833.958 830.917 833.958 824.337V684.747C833.958 678.167 837.248 674.877 843.828 674.877C850.408 674.877 853.698 678.167 853.698 684.747V814.467H918.793C925.373 814.467 928.663 817.757 928.663 824.337C928.663 830.917 925.373 834.207 918.793 834.207H843.828ZM1035.83 833.267C1029.56 830.839 1027.68 826.53 1030.19 820.342L1086.12 682.632C1088.47 677.462 1092.15 674.877 1097.16 674.877H1097.63C1102.72 675.112 1106.17 677.697 1107.97 682.632L1164.84 820.342C1167.35 826.53 1165.55 830.839 1159.44 833.267C1153.25 835.695 1148.94 833.894 1146.51 827.862L1133.82 797.077H1060.62L1048.52 827.862C1046.09 833.972 1041.86 835.774 1035.83 833.267ZM1068.37 777.337H1125.71L1096.46 706.132L1068.37 777.337ZM1384.57 834.677C1381.98 836.322 1379.52 836.831 1377.17 836.205C1374.82 835.578 1372.82 833.972 1371.17 831.387L1334.75 770.757H1301.85V824.337C1301.85 830.917 1298.56 834.207 1291.98 834.207C1285.4 834.207 1282.11 830.917 1282.11 824.337V684.747C1282.11 678.167 1285.4 674.877 1291.98 674.877H1346.97C1361.3 674.877 1372.27 678.715 1379.87 686.392C1387.55 693.99 1391.38 704.957 1391.38 719.292V726.342C1391.38 738.797 1388.49 748.745 1382.69 756.187C1376.89 763.55 1368.51 768.133 1357.54 769.935L1388.33 821.282C1391.31 826.765 1390.05 831.23 1384.57 834.677ZM1301.85 751.017H1346.97C1355.9 751.017 1362.24 749.137 1366 745.377C1369.76 741.617 1371.64 735.272 1371.64 726.342V719.292C1371.64 710.44 1369.76 704.135 1366 700.375C1362.24 696.536 1355.9 694.617 1346.97 694.617H1301.85V751.017ZM1511.23 834.207C1504.81 834.207 1501.6 830.917 1501.6 824.337C1501.6 823.24 1501.91 822.026 1502.54 820.695C1503.17 819.363 1504.11 817.757 1505.36 815.877L1599.83 692.267V694.617H1537.08C1532.07 694.617 1528.15 695.361 1525.33 696.85C1522.51 698.338 1520.56 700.805 1519.46 704.252C1518.75 707.15 1517.66 709.422 1516.17 711.067C1514.68 712.634 1512.33 713.417 1509.12 713.417C1505.83 713.417 1503.24 712.516 1501.36 710.715C1499.56 708.913 1498.94 706.367 1499.48 703.077C1501.36 693.99 1505.44 687.019 1511.7 682.162C1518.05 677.305 1526.51 674.877 1537.08 674.877H1615.57C1622.15 674.877 1625.44 678.167 1625.44 684.747C1625.44 686 1625.17 687.332 1624.62 688.742C1624.07 690.152 1623.09 691.797 1621.68 693.677L1528.39 815.407V814.467H1597.95C1603.28 814.467 1607.35 813.762 1610.17 812.352C1612.99 810.864 1614.87 808.357 1615.81 804.832C1616.67 801.855 1617.85 799.584 1619.33 798.017C1620.9 796.45 1623.25 795.667 1626.38 795.667C1629.67 795.667 1632.22 796.568 1634.02 798.37C1635.82 800.171 1636.49 802.717 1636.02 806.007C1632.18 824.807 1619.49 834.207 1597.95 834.207H1511.23ZM1806.97 834.207C1789.03 834.207 1775.76 829.938 1767.14 821.4C1758.6 812.783 1754.33 799.505 1754.33 781.567V684.747C1754.33 681.457 1755.15 678.99 1756.8 677.345C1758.44 675.7 1760.91 674.877 1764.2 674.877C1767.49 674.877 1769.96 675.7 1771.6 677.345C1773.25 678.99 1774.07 681.457 1774.07 684.747V781.567C1774.07 789.949 1775.05 796.529 1777.01 801.307C1779.05 806.085 1782.45 809.493 1787.23 811.53C1792.01 813.488 1798.59 814.467 1806.97 814.467H1835.17C1843.55 814.467 1850.13 813.488 1854.91 811.53C1859.69 809.493 1863.06 806.085 1865.02 801.307C1867.05 796.529 1868.07 789.949 1868.07 781.567V684.747C1868.07 681.457 1868.89 678.99 1870.54 677.345C1872.18 675.7 1874.65 674.877 1877.94 674.877C1881.23 674.877 1883.7 675.7 1885.34 677.345C1886.99 678.99 1887.81 681.457 1887.81 684.747V781.567C1887.81 799.505 1883.54 812.783 1875 821.4C1866.47 829.938 1853.19 834.207 1835.17 834.207H1806.97Z" fill="white"/>
<g clip-path="url(#clip0_52_14)">
<path d="M399.775 1019.4L458.307 959.781C437.403 955.64 418.171 947.359 400.611 935.766L399.775 1019.4ZM592.095 560.649L533.563 620.271C554.467 624.411 573.699 632.692 591.259 644.285L592.095 560.649ZM264.315 885.254L348.769 884.426C337.062 867.036 328.701 847.991 324.52 827.289L264.315 885.254ZM727.555 694.797L643.101 695.625C653.971 713.015 662.333 732.061 667.35 752.762L727.555 694.797ZM264.315 694.797L324.52 752.762C328.701 732.061 337.062 713.015 348.769 695.625L264.315 694.797ZM727.555 885.254L667.35 827.289C663.169 847.991 654.808 867.036 643.101 884.426L727.555 885.254ZM399.775 560.649L400.611 644.285C418.171 633.52 437.403 625.239 458.307 620.271L399.775 560.649ZM592.095 1019.4L591.259 935.766C573.699 947.359 554.467 955.64 533.563 959.781L592.095 1019.4Z" fill="#FFE62E"/>
<path d="M352.327 889.551L318.892 966.591L396.628 933.455C379.075 921.03 364.029 906.118 352.327 889.551ZM639.866 690.736L673.301 613.695L596.401 646.831C613.118 659.257 628.164 674.168 639.866 690.736ZM323.908 759.493L245.336 790.143L323.908 820.794C321.4 810.853 320.564 800.912 320.564 790.143C320.564 779.374 321.4 769.433 323.908 759.493ZM668.285 820.794L746.857 790.143L668.285 759.493C669.957 769.433 671.629 780.203 671.629 790.143C671.629 800.912 670.793 810.853 668.285 820.794ZM395.792 647.659L318.056 614.524L351.491 691.564C364.029 674.168 379.075 659.257 395.792 647.659ZM596.401 932.627L674.136 965.763L640.702 888.722C628.164 906.118 613.118 921.03 596.401 932.627ZM527.024 619.494L496.096 541.625L465.169 619.494C475.2 617.837 486.066 616.18 496.096 616.18C506.127 616.18 516.993 617.009 527.024 619.494ZM465.169 960.792L496.096 1038.66L527.024 960.792C516.993 963.278 506.963 964.106 496.096 964.106C485.23 964.106 475.2 963.278 465.169 960.792Z" fill="#FFCE31"/>
<path d="M496.096 947.538C583.807 947.538 654.911 877.07 654.911 790.143C654.911 703.216 583.807 632.748 496.096 632.748C408.385 632.748 337.281 703.216 337.281 790.143C337.281 877.07 408.385 947.538 496.096 947.538Z" fill="#FFCE31"/>
</g>
<path d="M793.243 980.721V961.671H836.143V980.721H793.243ZM934.644 912.171H983.094C987.394 912.171 991.244 912.821 994.644 914.121C998.144 915.421 1001.09 917.221 1003.49 919.521C1005.89 921.821 1007.69 924.671 1008.89 928.071C1010.19 931.371 1010.84 935.021 1010.84 939.021C1010.84 943.021 1010.29 946.421 1009.19 949.221C1008.19 951.921 1006.79 954.171 1004.99 955.971C1003.29 957.771 1001.29 959.121 998.994 960.021C996.794 960.921 994.494 961.421 992.094 961.521V962.421C994.394 962.421 996.844 962.871 999.444 963.771C1002.14 964.671 1004.59 966.121 1006.79 968.121C1009.09 970.021 1010.99 972.521 1012.49 975.621C1013.99 978.621 1014.74 982.371 1014.74 986.871C1014.74 991.071 1014.04 995.021 1012.64 998.721C1011.34 1002.32 1009.49 1005.47 1007.09 1008.17C1004.69 1010.87 1001.84 1013.02 998.544 1014.62C995.244 1016.12 991.644 1016.87 987.744 1016.87H934.644V912.171ZM954.444 1000.07H982.044C985.844 1000.07 988.794 999.121 990.894 997.221C992.994 995.221 994.044 992.371 994.044 988.671V983.571C994.044 979.871 992.994 977.021 990.894 975.021C988.794 973.021 985.844 972.021 982.044 972.021H954.444V1000.07ZM954.444 955.821H978.894C982.494 955.821 985.294 954.871 987.294 952.971C989.294 950.971 990.294 948.221 990.294 944.721V940.071C990.294 936.571 989.294 933.871 987.294 931.971C985.294 929.971 982.494 928.971 978.894 928.971H954.444V955.821ZM1100.71 1003.82H1099.96C1099.26 1005.82 1098.31 1007.72 1097.11 1009.52C1096.01 1011.22 1094.56 1012.77 1092.76 1014.17C1091.06 1015.57 1088.96 1016.67 1086.46 1017.47C1084.06 1018.27 1081.26 1018.67 1078.06 1018.67C1069.96 1018.67 1063.76 1016.02 1059.46 1010.72C1055.16 1005.42 1053.01 997.871 1053.01 988.071V938.571H1072.21V986.121C1072.21 991.521 1073.26 995.671 1075.36 998.571C1077.46 1001.37 1080.81 1002.77 1085.41 1002.77C1087.31 1002.77 1089.16 1002.52 1090.96 1002.02C1092.86 1001.52 1094.51 1000.77 1095.91 999.771C1097.31 998.671 1098.46 997.371 1099.36 995.871C1100.26 994.271 1100.71 992.421 1100.71 990.321V938.571H1119.91V1016.87H1100.71V1003.82ZM1211.09 938.571H1229.09L1197.59 1030.82C1196.59 1033.62 1195.44 1036.02 1194.14 1038.02C1192.94 1040.12 1191.49 1041.82 1189.79 1043.12C1188.09 1044.42 1186.04 1045.37 1183.64 1045.97C1181.24 1046.57 1178.44 1046.87 1175.24 1046.87H1163.69V1031.57H1177.79L1181.39 1020.62L1153.34 938.571H1172.39L1186.04 979.971L1191.14 999.771H1192.04L1197.44 979.971L1211.09 938.571ZM1350.4 963.171L1339.6 941.421H1339.15V1016.87H1320.4V912.171H1342.15L1373.65 965.871L1384.45 987.621H1384.9V912.171H1403.65V1016.87H1381.9L1350.4 963.171ZM1479.06 1018.67C1473.46 1018.67 1468.41 1017.72 1463.91 1015.82C1459.51 1013.92 1455.71 1011.17 1452.51 1007.57C1449.41 1003.97 1447.01 999.671 1445.31 994.671C1443.61 989.571 1442.76 983.871 1442.76 977.571C1442.76 971.271 1443.61 965.621 1445.31 960.621C1447.01 955.621 1449.41 951.371 1452.51 947.871C1455.71 944.271 1459.51 941.521 1463.91 939.621C1468.41 937.721 1473.46 936.771 1479.06 936.771C1484.66 936.771 1489.71 937.721 1494.21 939.621C1498.71 941.521 1502.51 944.271 1505.61 947.871C1508.81 951.371 1511.26 955.621 1512.96 960.621C1514.66 965.621 1515.51 971.271 1515.51 977.571C1515.51 983.871 1514.66 989.571 1512.96 994.671C1511.26 999.671 1508.81 1003.97 1505.61 1007.57C1502.51 1011.17 1498.71 1013.92 1494.21 1015.82C1489.71 1017.72 1484.66 1018.67 1479.06 1018.67ZM1479.06 1003.22C1484.16 1003.22 1488.16 1001.67 1491.06 998.571C1493.96 995.471 1495.41 990.921 1495.41 984.921V970.371C1495.41 964.471 1493.96 959.971 1491.06 956.871C1488.16 953.771 1484.16 952.221 1479.06 952.221C1474.06 952.221 1470.11 953.771 1467.21 956.871C1464.31 959.971 1462.86 964.471 1462.86 970.371V984.921C1462.86 990.921 1464.31 995.471 1467.21 998.571C1470.11 1001.67 1474.06 1003.22 1479.06 1003.22ZM1544.57 938.571H1563.02L1570.97 970.821L1577.12 997.671H1577.72L1584.92 970.821L1594.07 938.571H1611.47L1620.92 970.821L1628.27 997.671H1628.87L1635.02 970.821L1642.82 938.571H1660.67L1639.22 1016.87H1618.52L1608.47 982.371L1602.62 961.071H1602.17L1596.47 982.371L1586.57 1016.87H1566.17L1544.57 938.571ZM1705.12 1037.57V902.871H1721.32V1037.57H1705.12ZM1774.71 1016.87V912.171H1821.81C1826.61 912.171 1830.91 912.971 1834.71 914.571C1838.61 916.071 1841.91 918.271 1844.61 921.171C1847.31 923.971 1849.36 927.371 1850.76 931.371C1852.16 935.371 1852.86 939.771 1852.86 944.571C1852.86 949.471 1852.16 953.921 1850.76 957.921C1849.36 961.821 1847.31 965.221 1844.61 968.121C1841.91 970.921 1838.61 973.121 1834.71 974.721C1830.91 976.221 1826.61 976.971 1821.81 976.971H1794.51V1016.87H1774.71ZM1794.51 959.871H1820.01C1823.81 959.871 1826.81 958.871 1829.01 956.871C1831.21 954.771 1832.31 951.821 1832.31 948.021V941.121C1832.31 937.321 1831.21 934.421 1829.01 932.421C1826.81 930.421 1823.81 929.421 1820.01 929.421H1794.51V959.871ZM1946.16 1016.87C1941.96 1016.87 1938.61 1015.67 1936.11 1013.27C1933.71 1010.77 1932.21 1007.47 1931.61 1003.37H1930.71C1929.41 1008.47 1926.76 1012.32 1922.76 1014.92C1918.76 1017.42 1913.81 1018.67 1907.91 1018.67C1899.91 1018.67 1893.76 1016.57 1889.46 1012.37C1885.16 1008.17 1883.01 1002.57 1883.01 995.571C1883.01 987.471 1885.91 981.471 1891.71 977.571C1897.51 973.571 1905.76 971.571 1916.46 971.571H1929.81V965.871C1929.81 961.471 1928.66 958.071 1926.36 955.671C1924.06 953.271 1920.36 952.071 1915.26 952.071C1910.76 952.071 1907.11 953.071 1904.31 955.071C1901.61 956.971 1899.31 959.271 1897.41 961.971L1886.01 951.771C1888.91 947.271 1892.76 943.671 1897.56 940.971C1902.36 938.171 1908.71 936.771 1916.61 936.771C1927.21 936.771 1935.26 939.171 1940.76 943.971C1946.26 948.771 1949.01 955.671 1949.01 964.671V1001.57H1956.81V1016.87H1946.16ZM1914.36 1004.72C1918.66 1004.72 1922.31 1003.77 1925.31 1001.87C1928.31 999.971 1929.81 997.171 1929.81 993.471V983.121H1917.51C1907.51 983.121 1902.51 986.321 1902.51 992.721V995.271C1902.51 998.471 1903.51 1000.87 1905.51 1002.47C1907.61 1003.97 1910.56 1004.72 1914.36 1004.72ZM2040.17 938.571H2058.17L2026.67 1030.82C2025.67 1033.62 2024.52 1036.02 2023.22 1038.02C2022.02 1040.12 2020.57 1041.82 2018.87 1043.12C2017.17 1044.42 2015.12 1045.37 2012.72 1045.97C2010.32 1046.57 2007.52 1046.87 2004.32 1046.87H1992.77V1031.57H2006.87L2010.47 1020.62L1982.42 938.571H2001.47L2015.12 979.971L2020.22 999.771H2021.12L2026.52 979.971L2040.17 938.571ZM2149.49 1016.87V912.171H2169.29V999.321H2210.54V1016.87H2149.49ZM2277.69 1018.67C2271.89 1018.67 2266.69 1017.72 2262.09 1015.82C2257.59 1013.82 2253.74 1011.07 2250.54 1007.57C2247.44 1003.97 2245.04 999.671 2243.34 994.671C2241.64 989.571 2240.79 983.871 2240.79 977.571C2240.79 971.371 2241.59 965.771 2243.19 960.771C2244.89 955.771 2247.29 951.521 2250.39 948.021C2253.49 944.421 2257.29 941.671 2261.79 939.771C2266.29 937.771 2271.39 936.771 2277.09 936.771C2283.19 936.771 2288.49 937.821 2292.99 939.921C2297.49 942.021 2301.19 944.871 2304.09 948.471C2306.99 952.071 2309.14 956.271 2310.54 961.071C2312.04 965.771 2312.79 970.821 2312.79 976.221V982.521H2260.74V984.471C2260.74 990.171 2262.34 994.771 2265.54 998.271C2268.74 1001.67 2273.49 1003.37 2279.79 1003.37C2284.59 1003.37 2288.49 1002.37 2291.49 1000.37C2294.59 998.371 2297.34 995.821 2299.74 992.721L2310.09 1004.27C2306.89 1008.77 2302.49 1012.32 2296.89 1014.92C2291.39 1017.42 2284.99 1018.67 2277.69 1018.67ZM2277.39 951.171C2272.29 951.171 2268.24 952.871 2265.24 956.271C2262.24 959.671 2260.74 964.071 2260.74 969.471V970.671H2292.84V969.321C2292.84 963.921 2291.49 959.571 2288.79 956.271C2286.19 952.871 2282.39 951.171 2277.39 951.171ZM2376.34 1018.67C2368.84 1018.67 2362.54 1017.42 2357.44 1014.92C2352.34 1012.32 2347.84 1008.77 2343.94 1004.27L2355.64 992.871C2358.54 996.171 2361.69 998.771 2365.09 1000.67C2368.59 1002.57 2372.59 1003.52 2377.09 1003.52C2381.69 1003.52 2384.99 1002.72 2386.99 1001.12C2389.09 999.521 2390.14 997.321 2390.14 994.521C2390.14 992.221 2389.39 990.421 2387.89 989.121C2386.49 987.721 2384.04 986.771 2380.54 986.271L2372.74 985.221C2364.24 984.121 2357.74 981.721 2353.24 978.021C2348.84 974.221 2346.64 968.721 2346.64 961.521C2346.64 957.721 2347.34 954.321 2348.74 951.321C2350.14 948.221 2352.14 945.621 2354.74 943.521C2357.34 941.321 2360.44 939.671 2364.04 938.571C2367.74 937.371 2371.84 936.771 2376.34 936.771C2380.14 936.771 2383.49 937.071 2386.39 937.671C2389.39 938.171 2392.09 938.971 2394.49 940.071C2396.89 941.071 2399.09 942.371 2401.09 943.971C2403.09 945.471 2405.04 947.171 2406.94 949.071L2395.69 960.321C2393.39 957.921 2390.64 955.921 2387.44 954.321C2384.24 952.721 2380.74 951.921 2376.94 951.921C2372.74 951.921 2369.69 952.671 2367.79 954.171C2365.99 955.671 2365.09 957.621 2365.09 960.021C2365.09 962.621 2365.84 964.621 2367.34 966.021C2368.94 967.321 2371.59 968.271 2375.29 968.871L2383.24 969.921C2400.14 972.321 2408.59 980.021 2408.59 993.021C2408.59 996.821 2407.79 1000.32 2406.19 1003.52C2404.69 1006.62 2402.54 1009.32 2399.74 1011.62C2396.94 1013.82 2393.54 1015.57 2389.54 1016.87C2385.64 1018.07 2381.24 1018.67 2376.34 1018.67ZM2471.16 1018.67C2463.66 1018.67 2457.36 1017.42 2452.26 1014.92C2447.16 1012.32 2442.66 1008.77 2438.76 1004.27L2450.46 992.871C2453.36 996.171 2456.51 998.771 2459.91 1000.67C2463.41 1002.57 2467.41 1003.52 2471.91 1003.52C2476.51 1003.52 2479.81 1002.72 2481.81 1001.12C2483.91 999.521 2484.96 997.321 2484.96 994.521C2484.96 992.221 2484.21 990.421 2482.71 989.121C2481.31 987.721 2478.86 986.771 2475.36 986.271L2467.56 985.221C2459.06 984.121 2452.56 981.721 2448.06 978.021C2443.66 974.221 2441.46 968.721 2441.46 961.521C2441.46 957.721 2442.16 954.321 2443.56 951.321C2444.96 948.221 2446.96 945.621 2449.56 943.521C2452.16 941.321 2455.26 939.671 2458.86 938.571C2462.56 937.371 2466.66 936.771 2471.16 936.771C2474.96 936.771 2478.31 937.071 2481.21 937.671C2484.21 938.171 2486.91 938.971 2489.31 940.071C2491.71 941.071 2493.91 942.371 2495.91 943.971C2497.91 945.471 2499.86 947.171 2501.76 949.071L2490.51 960.321C2488.21 957.921 2485.46 955.921 2482.26 954.321C2479.06 952.721 2475.56 951.921 2471.76 951.921C2467.56 951.921 2464.51 952.671 2462.61 954.171C2460.81 955.671 2459.91 957.621 2459.91 960.021C2459.91 962.621 2460.66 964.621 2462.16 966.021C2463.76 967.321 2466.41 968.271 2470.11 968.871L2478.06 969.921C2494.96 972.321 2503.41 980.021 2503.41 993.021C2503.41 996.821 2502.61 1000.32 2501.01 1003.52C2499.51 1006.62 2497.36 1009.32 2494.56 1011.62C2491.76 1013.82 2488.36 1015.57 2484.36 1016.87C2480.46 1018.07 2476.06 1018.67 2471.16 1018.67Z" fill="#FFCE31"/>
<path d="M117.273 839.41C103.878 839.41 93.42 836.708 85.9 831.303C78.4583 825.898 73.7975 817.555 71.9175 806.275C71.6042 802.828 72.3092 800.243 74.0325 798.52C75.7558 796.797 78.2625 795.935 81.5525 795.935C84.8425 795.935 87.2317 796.718 88.72 798.285C90.2867 799.852 91.3442 802.28 91.8925 805.57C93.0675 810.975 95.5742 814.696 99.4125 816.733C103.329 818.691 109.283 819.67 117.273 819.67H151.113C161.218 819.67 168.072 817.868 171.675 814.265C175.357 810.583 177.198 803.768 177.198 793.82C177.198 783.715 175.318 776.822 171.558 773.14C167.798 769.38 160.983 767.5 151.113 767.5H121.973C107.168 767.5 96.1617 763.897 88.955 756.69C81.8267 749.405 78.2625 738.36 78.2625 723.555C78.2625 708.828 81.7875 697.901 88.8375 690.773C95.9658 683.644 106.933 680.08 121.738 680.08H149.703C162.158 680.08 171.91 682.626 178.96 687.718C186.088 692.809 190.593 700.603 192.473 711.1C192.943 714.468 192.316 717.053 190.593 718.855C188.869 720.578 186.284 721.44 182.838 721.44C179.704 721.44 177.354 720.618 175.788 718.973C174.221 717.328 173.203 714.938 172.733 711.805C171.479 707.183 169.09 704.05 165.565 702.405C162.04 700.682 156.753 699.82 149.703 699.82H121.738C112.338 699.82 106.032 701.504 102.82 704.873C99.6083 708.163 98.0025 714.39 98.0025 723.555C98.0025 732.798 99.6475 739.143 102.938 742.59C106.228 746.037 112.573 747.76 121.973 747.76H151.113C166.544 747.76 178.02 751.52 185.54 759.04C193.138 766.56 196.938 778.153 196.938 793.82C196.938 809.408 193.178 820.923 185.658 828.365C178.138 835.728 166.623 839.41 151.113 839.41H117.273Z" fill="white"/>
<defs>
<clipPath id="clip0_52_14">
<rect width="698.244" height="692" fill="white" transform="translate(265.282 520)"/>
</clipPath>
</defs>
</svg>
